Coordinates
version=1
nRows=13
nColumns=36
inDegrees=yes

Units are S.I. units (second, meters, Newtons, ...)
If the header above contains a line with 'inDegrees', this indicates whether rotational values are in degrees (yes) or radians (no).

endheader
time	pelvis_tilt	pelvis_list	pelvis_rotation	pelvis_tx	pelvis_ty	pelvis_tz	hip_flexion_r	hip_adduction_r	hip_rotation_r	knee_angle_r	knee_angle_r_beta	ankle_angle_r	subtalar_angle_r	mtp_angle_r	hip_flexion_l	hip_adduction_l	hip_rotation_l	knee_angle_l	knee_angle_l_beta	ankle_angle_l	subtalar_angle_l	mtp_angle_l	lumbar_extension	lumbar_bending	lumbar_rotation	arm_flex_r	arm_add_r	arm_rot_r	elbow_flex_r	pro_sup_r	arm_flex_l	arm_add_l	arm_rot_l	elbow_flex_l	pro_sup_l
      0.00000000	      2.37068571	      1.58168672	     -5.47070989	      0.51984947	      0.92918397	      0.21101020	     -3.90567933	      3.79954798	      3.57910394	      3.78337030	      0.06603227	      9.05669137	     -4.96979663	     -6.13579094	     16.60095746	     -3.70485257	      1.16183240	     17.48827931	      0.30522805	      1.63622626	    -11.58338937	     -6.13579094	    -11.53680067	      1.18863852	     -3.25505024	     24.99524596	    -16.28875478	     38.08744750	    129.15851913	     77.65085987	     29.15876117	     -1.55652622	     68.38918904	    121.27646140	    102.38953201
      0.01666670	      2.66438118	      0.03789430	     -5.72493312	      0.51873597	      0.92599567	      0.20980312	     -4.15432807	      5.76640869	      5.05116976	      4.11860356	      0.07188319	      7.79661324	     -7.23396925	     -6.54824090	     16.89980791	     -5.96847927	      1.26279720	     14.95913836	      0.26108622	      0.91470631	    -10.03074406	     -6.54824090	    -13.00941577	      4.35110438	     -0.71126573	     25.57371940	    -18.38505070	     40.58444126	    132.44564369	     91.19988166	     31.01412796	     -1.80796012	     67.89979188	    124.74336321	    109.32184421
      0.03333330	      3.39897362	      0.15389206	     -6.28942380	      0.51804427	      0.92760446	      0.21116361	     -4.75991933	      5.74246278	      4.66839758	      4.10696999	      0.07168015	      7.21572684	     -7.55669512	     -6.68924207	     15.85082176	     -6.30335874	      0.97379875	     11.60901001	      0.20261545	     -0.52786268	     -9.42736772	     -6.68924207	    -14.03292545	      4.01112184	     -0.02841871	     25.70783482	    -16.27713018	     38.52483701	    133.50929794	     94.89568425	     31.95747823	     -1.43917188	     67.33913436	    125.41633002	    111.60760057
      0.05000000	      3.16235149	      0.58762524	     -6.27869344	      0.51739539	      0.92742141	      0.21197843	     -4.19984728	      5.38689108	      3.16132745	      4.13820539	      0.07222531	      7.88505285	     -6.58917905	     -6.80085401	     16.47668997	     -6.24736060	      1.08489667	      9.29329743	      0.16219864	     -0.05469121	     -8.53681345	     -6.80085401	    -13.78346238	      3.67015257	     -0.31581724	     26.12314576	    -14.85031822	     39.54278587	    133.03356597	     96.03532305	     32.06814332	     -1.62783341	     66.02462844	    125.76291357	    111.57302339
      0.06666670	      2.98312408	      0.96292334	     -6.20439900	      0.51726597	      0.92442185	      0.21242573	     -3.77520761	      5.16668463	      2.21369149	      4.29487781	      0.07495976	      8.04865753	     -6.81431465	     -6.80417042	     17.25394083	     -6.08470696	      1.11803746	      8.09920831	      0.14135785	      0.87442500	     -8.59039238	     -6.80417042	    -13.72481729	      3.32657222	     -0.20098947	     26.20562289	    -14.24985569	     39.66298940	    133.10572487	     96.09064412	     32.92313750	     -1.28793787	     65.48959179	    125.91206892	    111.50338060
      0.08333330	      2.62622509	      1.63032216	     -6.01569836	      0.51679912	      0.92770816	      0.21301990	     -2.98620127	      4.55474614	      0.61135343	      5.05314834	      0.08819408	      8.89065615	     -5.30379465	     -6.85761845	     18.49660502	     -5.42454279	      0.54369803	      7.59768407	      0.13260460	      1.97449990	     -6.89693411	     -6.85761845	    -13.38124567	      2.83493959	     -0.66894103	     26.02225083	    -13.22644485	     40.44198658	    132.53440323	     96.83515267	     32.22823356	     -1.39873168	     64.94123403	    126.26247900	    110.70821718
      0.10000000	      2.72359577	      2.39602034	     -5.78685103	      0.51661952	      0.92825561	      0.21335681	     -2.72310209	      3.81967106	     -0.14823506	      5.60365530	      0.09780224	      8.56119935	     -5.33871198	     -6.86040274	     19.26953149	     -4.56210423	      0.49584125	      7.71176261	      0.13459565	      2.29075621	     -6.73168259	     -6.86040274	    -13.60554384	      2.11032652	     -0.57319708	     25.68848835	    -12.84299822	     40.68749691	    132.45491327	     96.87837059	     32.00835060	     -1.37594199	     64.97782731	    126.42280905	    110.66881540
      0.11666670	      1.50645829	      3.10708743	     -5.34119578	      0.51652262	      0.92762042	      0.21354150	     -0.63576051	      3.17801714	     -1.81005650	      6.72454151	      0.11736539	      8.98897656	     -4.11404322	     -6.89322694	     21.78157657	     -3.94522430	     -0.53881991	      8.73978881	      0.15253809	      3.03833115	     -4.89325988	     -6.89322694	    -12.40290386	      1.72282787	     -1.46958064	     25.54543098	    -12.41418468	     41.30334813	    131.84935339	     97.25968900	     31.46086599	     -1.72816338	     65.22362457	    127.25272517	    110.20162556
      0.13333330	      0.93961490	      3.67929498	     -5.02007101	      0.51678040	      0.92716484	      0.21373055	      0.71641125	      2.60006866	     -2.86043406	      7.66590172	      0.13379523	      8.83001997	     -3.43144062	     -6.94006682	     23.66078187	     -3.46982740	     -1.32525424	      9.99241136	      0.17440048	      2.86750802	     -3.97874815	     -6.94006682	    -11.83458296	      1.37934592	     -2.17132358	     25.72371865	    -12.02197588	     42.13657168	    131.33503427	     97.57358237	     31.02300156	     -2.07453419	     65.11136867	    127.86497156	    109.77803026
      0.15000000	      0.73951941	      4.15758934	     -4.82324688	      0.52289722	      0.92827800	      0.21794599	      1.41730321	      2.14861206	     -3.60779464	      8.34205833	      0.14559638	      9.14043363	     -2.80371692	     -6.95591389	     24.81838406	     -3.16082795	     -2.16682862	     11.28617312	      0.19698088	      2.75977876	     -3.13569505	     -6.95591389	    -11.41962828	      0.91798447	     -2.54608126	     25.13454337	    -11.90316715	     42.75798286	    131.63804970	     97.58806914	     30.40744471	     -2.62519811	     65.29327463	    128.23717022	    109.65492630
      0.16666670	      0.61528954	      4.46759338	     -4.61256502	      0.52302384	      0.92599487	      0.21838637	      2.02837273	      1.82777388	     -4.20067419	      8.98345975	      0.15679095	      9.40626701	     -2.01402665	     -7.13307689	     26.14594228	     -3.06985073	     -3.06807565	     12.63114228	      0.22045502	      2.82219306	     -2.13644357	     -7.13307689	    -10.99137623	      0.60351110	     -2.92214455	     24.96586393	    -11.80107036	     43.80185460	    131.73947547	     92.79468278	     30.07879061	     -2.72655851	     65.92276586	    128.66460805	    107.74339562
      0.18333330	     -0.05900281	      4.52663730	     -4.35353858	      0.52235146	      0.92629045	      0.21843959	      3.35340317	      1.75382940	     -5.00093655	      9.81552935	      0.17131330	      9.98429543	     -0.99772922	     -7.16095530	     28.23961455	     -3.13080746	     -3.51074067	     13.79087010	      0.24069609	      3.48253663	     -0.91608273	     -7.16095530	    -10.17602621	      0.77152465	     -3.22410762	     24.74440456	    -11.79634986	     44.06187576	    131.51351708	     94.31173181	     29.12202014	     -2.88890419	     66.15075331	    129.19630302	    108.68404938
      0.20000000	     -0.24428059	      4.57570984	     -4.36441534	      0.52238433	      0.92873569	      0.21829677	      4.04300189	      1.64683053	     -5.33458212	     10.56896725	      0.18446328	     10.59523616	     -0.16808530	     -7.16814024	     29.69382379	     -3.01073117	     -3.50458480	     14.05390907	      0.24528699	      4.56100622	      0.61310505	     -7.16814024	    -10.14369779	      0.83610935	     -3.29089453	     24.49091974	    -11.78531496	     44.56473836	    131.69762063	     94.62064170	     28.59236861	     -3.18495015	     66.30414447	    129.25665339	    108.80152322
